<?xml version="1.0" encoding="UTF-8"?>
<svg width="239px" height="71px" viewBox="0 0 239 71" version="1.1" xmlns="http://www.w3.org/2000/svg" xmlns:xlink="http://www.w3.org/1999/xlink">
    <!-- Generator: Sketch 48.2 (47327) - http://www.bohemiancoding.com/sketch -->
    <title>SDC_white_vector (1)</title>
    <desc>Created with Sketch.</desc>
    <defs></defs>
    <g id="Header" stroke="none" stroke-width="1" fill="none" fill-rule="evenodd" transform="translate(-135.000000, -28.000000)">
        <g id="SDC_white_vector-(1)" transform="translate(135.000000, 28.000000)">
            <polygon id="Fill-3" fill="#003148" points="0 71 239 71 239 54 0 54"></polygon>
            <polyline id="Fill-4" fill="#59AED6" points="23.3871878 0 68 0 56.7799762 39 11 39 23.3871878 0"></polyline>
            <path d="M65.8945213,38.4148217 C66.5847794,39.1980784 67.2505362,39.8748323 67.8909469,40.4375359 C68.5322025,41.0027554 69.186976,41.4665037 69.8561123,41.8312967 C70.5252486,42.1969283 71.2281796,42.4636046 71.9606811,42.6346799 C72.6957172,42.8065938 73.5025671,42.8912929 74.3812309,42.8912929 C75.4753363,42.8912929 76.5297329,42.7587934 77.5435757,42.4954715 C78.5591083,42.2313111 79.4588939,41.8346511 80.2429323,41.3063303 C81.0286606,40.7771708 81.6538637,40.1264136 82.1219211,39.3548975 C82.5891337,38.5850585 82.8248521,37.6927832 82.8248521,36.6772331 C82.8248521,35.8637867 82.600117,35.1342007 82.154871,34.4918296 C81.7079353,33.8486199 81.1139923,33.2414702 80.3730422,32.6695419 C79.6304023,32.0976136 78.7829986,31.5483276 77.8249171,31.0191681 C76.8676805,30.4900086 75.877494,29.9331752 74.8560473,29.3478292 C73.5169299,28.576313 72.3695977,27.8542745 71.4115162,27.1825522 C70.4525898,26.51083 69.6660168,25.8223356 69.0467278,25.1145534 C68.4282836,24.4076097 67.9745889,23.6537042 67.6864886,22.8528369 C67.3975434,22.0536467 67.2547605,21.1387292 67.2547605,20.1097614 C67.2547605,18.5516341 67.6180542,17.2014807 68.3446416,16.0584627 C69.0703841,14.9154447 70.0174823,13.9694988 71.1842464,13.2189477 C72.3510106,12.4683966 73.6554884,11.9107246 75.1035939,11.5467702 C76.5500097,11.1828158 78.0014948,11 79.4546695,11 C80.4921687,11 81.4570092,11.0754744 82.348346,11.224746 C83.2413726,11.3748562 84.0769481,11.6180516 84.8533827,11.9534934 C85.6315071,12.2889352 86.3623188,12.7216552 87.0458179,13.249976 C87.729317,13.7799741 88.380711,14.4223452 89,15.1796051 L86.5169299,17.7079979 C85.5672971,16.3796483 84.4867096,15.4085442 83.2768571,14.793847 C82.0678495,14.1791499 80.7219731,13.8722206 79.2400728,13.8722206 C78.6782349,13.8722206 78.0910509,13.911635 77.4793657,13.9896253 C76.8676805,14.0684541 76.2652889,14.1967606 75.67726,14.3753834 C75.0866966,14.5548447 74.5282381,14.7871382 74.0027296,15.0722638 C73.4763762,15.3582279 73.0167674,15.7012172 72.6213687,16.1003929 C72.2251251,16.5012459 71.9074543,16.9624784 71.6700461,17.4832519 C71.4326379,18.0048639 71.3143563,18.5952415 71.3143563,19.2518689 C71.3143563,20.2380679 71.4943134,21.081704 71.8533827,21.7811002 C72.2132969,22.4821737 72.6990966,23.1069341 73.3116267,23.6570587 C73.9250016,24.2063446 74.6422954,24.7170548 75.471112,25.1883506 C76.2990836,25.6613236 77.1802821,26.1535844 78.116397,26.6684876 C78.5912134,26.9259392 79.1378436,27.2152578 79.7571326,27.5356048 C80.3764217,27.8576289 81.0100734,28.2182289 81.658088,28.6190818 C82.3061026,29.0190962 82.9422889,29.4727813 83.5691818,29.9801371 C84.1952297,30.4874928 84.7494638,31.0594211 85.2310392,31.695922 C85.7143043,32.3307456 86.1071684,33.0418823 86.4087866,33.8276548 C86.7112498,34.6142659 86.8616364,35.4847374 86.8616364,36.4415852 C86.8616364,38.0860887 86.4949633,39.5058463 85.7607721,40.7050508 C85.0265809,41.9067711 84.058361,42.8980017 82.8569572,43.68629 C81.6538637,44.4703853 80.2860207,45.0515382 78.7534282,45.4314261 C77.2199909,45.8104754 75.6544486,46 74.0568012,46 C72.7759797,46 71.619354,45.9035605 70.5903035,45.7098428 C69.5620979,45.518641 68.6048612,45.2251294 67.7185936,44.8326624 C66.8331709,44.4376797 66.0094235,43.942903 65.2465068,43.3416235 C64.4827452,42.7420213 63.7350361,42.0350776 63,41.2191154 L65.8945213,38.4148217" id="Fill-5" fill="#003148"></path>
            <path d="M94.9978524,29.6803752 C96.0843782,29.6619482 97.2066505,29.6167183 98.3655005,29.5455231 C99.5226879,29.4743278 100.645791,29.3478516 101.732317,29.1686071 C102.818843,28.988525 103.847177,28.7464612 104.818982,28.4407404 C105.790786,28.1358573 106.641219,27.7505654 107.372775,27.2831895 C108.102667,26.8166513 108.676273,26.2504397 109.096086,25.58623 C109.513405,24.9220203 109.72539,24.1413854 109.72539,23.2443253 C109.72539,21.9871011 109.305577,21.0314097 108.467613,20.3755758 C107.62965,19.7214172 106.409283,19.3922439 104.807343,19.3922439 C103.417388,19.3922439 102.168756,19.7029902 101.065604,20.3211324 C99.9599584,20.9409498 98.9931417,21.7450373 98.1643228,22.7317196 C97.335504,23.7200771 96.6588154,24.8240221 96.1325944,26.0443923 C95.608036,27.2647625 95.2289574,28.4767568 94.9978524,29.6803752 Z M112.210184,42.2551302 C110.659785,43.4587486 108.909041,44.3834492 106.958781,45.0292319 C105.00769,45.6758522 102.818843,46 100.396398,46 C98.6680984,46 97.1526152,45.7202446 95.852442,45.1632465 C94.5522688,44.607086 93.4690682,43.8272887 92.6053343,42.823017 C91.7416003,41.8145573 91.0915137,40.6176397 90.6542432,39.2272385 C90.2178039,37.8351621 90,36.3576514 90,34.7963816 C90,32.3187872 90.3691029,29.9484044 91.1089713,27.6869085 C91.8480083,25.4254125 92.886318,23.4277578 94.2222376,21.6956194 C95.5589886,19.963481 97.1659162,18.5806181 99.047177,17.5487059 C100.926775,16.5167937 103.00672,16 105.287842,16 C108.067752,16 110.215033,16.5829634 111.729685,17.7505654 C113.243505,18.9181674 114,20.5958623 114,22.786163 C114,24.1505989 113.723173,25.3307647 113.172012,26.3266605 C112.619189,27.3233939 111.871008,28.1718737 110.925805,28.8720998 C109.981434,29.5714884 108.877451,30.1418879 107.612193,30.5816233 C106.346935,31.0221962 104.993557,31.3681213 103.550398,31.618561 C102.107239,31.8698383 100.615033,32.0457325 99.0729477,32.1445682 C97.5325251,32.2425664 96.0203672,32.3011978 94.542293,32.3187872 C94.4899203,32.5700645 94.4574991,32.8037524 94.4500173,33.0190133 C94.4408729,33.2342742 94.435885,33.4143563 94.435885,33.5575844 C94.435885,33.7008125 94.435885,33.7904347 94.435885,33.8272887 C94.435885,35.0836753 94.5564254,36.2546277 94.7975061,37.3409833 C95.0385868,38.4281766 95.4118462,39.3528771 95.9206096,40.115085 C96.4277104,40.8772929 97.0736405,41.4602563 97.8575684,41.8656504 C98.6414964,42.2676941 99.5775546,42.4712287 100.662418,42.4712287 C101.590163,42.4712287 102.503776,42.3807689 103.404087,42.202362 C104.301905,42.0222799 105.167302,41.7835665 105.994458,41.489572 C106.824108,41.1930647 107.608867,40.846302 108.347073,40.4517966 C109.086941,40.0564536 109.760305,39.6518971 110.364669,39.2398023 L112.210184,42.2551302 Z" id="Fill-6" fill="#003148"></path>
            <path d="M122.707296,3 L127,3 L120.644163,39.5389389 C120.570661,39.9011703 120.535177,40.2524251 120.535177,40.5977693 C120.535177,41.3399639 120.748925,41.8229392 121.173886,42.0483839 C121.598848,42.2763618 122.236713,42.3903507 123.086636,42.3903507 C123.231951,42.3903507 123.444854,42.3802184 123.727035,42.3616424 C124.008372,42.3439108 124.293088,42.3177355 124.582873,42.281428 L124.771275,44.7782076 C124.426575,44.9234379 124.0447,45.0686683 123.617204,45.2113655 C123.193088,45.3565958 122.752919,45.4891607 122.301767,45.6056828 C121.847235,45.7247379 121.400307,45.8184621 120.955914,45.8910772 C120.51321,45.9620037 120.101767,46 119.719892,46 C119.249309,46 118.787174,45.9408946 118.334332,45.8235283 C117.882335,45.7044732 117.483564,45.5035149 117.139708,45.2113655 C116.795008,44.9234379 116.519585,44.5341869 116.310906,44.0444567 C116.103072,43.5581039 116,42.9425637 116,42.1986804 C116,41.710639 116.054071,41.1677139 116.162212,40.5707497 L122.707296,3" id="Fill-7" fill="#003148"></path>
            <polyline id="Fill-8" fill="#003148" points="129 16 133.63316 16 135.623037 38.5006192 145.545305 16 148.322489 16 150.72085 38.421277 160.365993 16 165 16 151.047977 45 148.025024 45 145.871584 22.150275 135.948469 45 132.922974 45 129 16"></polyline>
            <path d="M175.954871,39.5182729 L187.466117,16 L192,16 L175.212423,47.628898 C174.256314,49.2992804 173.351353,50.7740934 172.493413,52.0541837 C171.637122,53.3325808 170.718137,54.4103288 169.73563,55.2916608 C168.755599,56.1729928 167.66255,56.83759 166.458959,57.2922252 C165.257018,57.7460138 163.833992,57.982221 162.189882,58 C161.553852,58 160.886473,57.9593622 160.186097,57.8763934 C159.489846,57.7951178 158.759772,57.663045 158,57.4827148 L159.333107,53.8549457 C160.287565,54.3078877 161.518379,54.0530549 162.72032,54.0530549 C163.833992,54.0530549 164.804125,53.8761112 165.624117,53.5222238 C166.44576,53.1683364 167.198932,52.6561309 167.87951,51.9847608 C168.557613,51.3133907 169.201893,50.4862424 169.802451,49.507549 C170.403009,48.5271624 171.038214,47.4113165 171.711367,46.1591647 C171.88873,45.8518414 172.076817,45.4742486 172.280577,45.0297728 C172.483513,44.585297 172.683974,44.0637787 172.878661,43.465218 L166.753464,16 L171.260124,16 L175.954871,39.5182729" id="Fill-9" fill="#003148"></path>
            <path d="M194.431207,20.2939775 C194.538625,19.6194284 194.629973,18.9219122 194.703559,18.2014291 C194.774607,17.4809459 194.832122,16.9025179 194.867646,16.4652943 L199.025656,16.4652943 C198.990978,17.3031643 198.936,18.2422593 198.864952,19.2817285 C199.570359,18.8266417 200.310444,18.3979245 201.080133,17.9964274 C201.848976,17.5957809 202.665184,17.2495747 203.527912,16.9578088 C204.387256,16.6660429 205.304116,16.4329704 206.273416,16.2602926 C207.242717,16.0867642 208.279682,16 209.389387,16 C211.907368,16 213.805369,16.6294658 215.084237,17.8866962 C216.363104,19.1447771 217,20.8945219 217,23.1376318 C217,23.483838 216.989004,23.8445049 216.961938,24.2179313 C216.934873,24.5922082 216.882432,24.9698877 216.810538,25.352671 L213.248825,46 L208.952948,46 L212.433463,25.7090847 C212.468987,25.435182 212.501974,25.1655325 212.529885,24.9018374 C212.556106,24.6372916 212.570484,24.3872065 212.570484,24.1498809 C212.570484,23.3664512 212.454608,22.6867982 212.230468,22.1126233 C212.00379,21.5375978 211.694223,21.0595441 211.305996,20.6767608 C210.914385,20.2939775 210.456801,20.0056142 209.931552,19.8150732 C209.404611,19.6236815 208.833688,19.5275604 208.217092,19.5275604 C207.204655,19.5275604 206.2565,19.5922082 205.378548,19.718952 C204.496366,19.8473971 203.664087,20.0336849 202.875791,20.2795168 C202.087495,20.5253488 201.321189,20.8188159 200.578567,21.1548146 C199.834252,21.4933651 199.100934,21.8616876 198.374381,22.2623341 L194.295032,46 L190,46 L194.431207,20.2939775" id="Fill-10" fill="#003148"></path>
            <path d="M65.6035395,66.0054205 L68.3243467,66.0054205 C70.0097585,66.0054205 72.2963943,65.2038436 72.2963943,61.8956965 C72.2963943,58.2302891 69.0744294,57.9962221 67.8231889,57.9962221 L65.6035395,57.9962221 L65.6035395,66.0054205 Z M64,57 L68.407046,57 C72.0474694,57 74,58.8125821 74,61.7708607 C74,64.4852168 72.2476017,67 68.3905061,67 L64,67 L64,57 Z" id="Fill-11" fill="#FFFFFE"></path>
            <polygon id="Fill-12" fill="#FFFFFE" points="77 67 79 67 79 57 77 57"></polygon>
            <path d="M81,65.1140399 C82.0474832,65.5648807 83.0797854,65.9580759 84.2734848,65.9580759 C85.4192444,65.9580759 86.4507476,65.3463434 86.4507476,64.2588189 C86.4507476,61.7249902 81.0647186,61.7533829 81.0647186,58.7824795 C81.0647186,57.8696128 81.8541262,56 84.5627212,56 C85.4991439,56 86.4028079,56.132499 87.289693,56.4215878 L87.289693,57.7104419 C86.386828,57.3929605 85.5159228,57.0445053 84.5315603,57.0445053 C83.1125442,57.0445053 82.5148956,57.9573719 82.5148956,58.5372702 C82.5148956,60.6813453 88,60.8560031 88,64.0136097 C88,65.0288619 87.1770346,67 84.0321881,67 C82.9982879,67 81.9835635,66.7960892 81,66.5207665 L81,65.1140399" id="Fill-13" fill="#FFFFFE"></path>
            <polyline id="Fill-14" fill="#FFFFFE" points="93.2101833 57.9962221 89 57.9962221 89 57 99 57 99 57.9962221 94.7906314 57.9962221 94.7906314 67 93.2101833 67 93.2101833 57.9962221"></polyline>
            <path d="M102.654456,61.7018725 C102.878239,61.7306176 103.11825,61.7593627 103.361678,61.7593627 C105.447471,61.7593627 106.637278,61.026774 106.637278,59.559954 C106.637278,58.5916557 105.655025,57.9962221 104.291829,57.9962221 L102.654456,57.9962221 L102.654456,61.7018725 Z M101,57 L105.033216,57 C106.310999,57 108.395938,57.5387648 108.395938,59.5188896 C108.395938,60.7491787 107.274461,61.9227989 105.844643,62.3260512 L110,67 L107.947518,67 L104.343931,62.7555848 L102.654456,62.7555848 L102.654456,67 L101,67 L101,57 Z" id="Fill-15" fill="#FFFFFE"></path>
            <polygon id="Fill-16" fill="#FFFFFE" points="112 67 114 67 114 57 112 57"></polygon>
            <path d="M126,57.7973406 C124.741778,57.4359797 123.430597,57.0445053 121.776031,57.0445053 C118.740241,57.0445053 117.757068,59.3339851 117.757068,61.5064529 C117.757068,63.6660149 118.740241,65.9580759 121.776031,65.9580759 C123.585205,65.9580759 124.775946,65.5648807 126,64.9694955 L126,66.1731717 C124.705902,66.8098553 123.430597,67 121.776031,67 C117.912531,67 116,64.5057489 116,61.5064529 C116,58.4933907 117.931323,56 121.776031,56 C123.310156,56 124.671735,56.2047712 126,56.4783731 L126,57.7973406" id="Fill-17" fill="#FFFFFE"></path>
            <polyline id="Fill-18" fill="#FFFFFE" points="131.208554 57.9962221 127 57.9962221 127 57 137 57 137 57.9962221 132.789002 57.9962221 132.789002 67 131.208554 67 131.208554 57.9962221"></polyline>
            <path d="M154,57.7984824 C152.74145,57.4370649 151.431601,57.0438082 149.773769,57.0438082 C146.739398,57.0438082 145.756156,59.3345068 145.756156,61.5073144 C145.756156,63.6672143 146.739398,65.9561918 149.773769,65.9561918 C151.583789,65.9561918 152.77565,65.5663772 154,64.9717594 L154,66.1747634 C152.708105,66.8115466 151.431601,67 149.773769,67 C145.91262,67 144,64.5062192 144,61.5073144 C144,58.4920598 145.930575,56 149.773769,56 C151.308482,56 152.673906,56.2030822 154,56.480169 L154,57.7984824" id="Fill-19" fill="#FFFFFE"></path>
            <path d="M164.323181,61.5073144 C164.323181,59.3345068 163.385727,57.0438082 160.508152,57.0438082 C157.615088,57.0438082 156.677635,59.3345068 156.677635,61.5073144 C156.677635,63.6672143 157.615088,65.9561918 160.508152,65.9561918 C163.385727,65.9561918 164.323181,63.6672143 164.323181,61.5073144 Z M155,61.5073144 C155,58.4920598 156.843115,56 160.508152,56 C164.175634,56 166,58.4920598 166,61.5073144 C166,64.5062192 164.175634,67 160.508152,67 C156.826812,67 155,64.5062192 155,61.5073144 Z" id="Fill-20" fill="#FFFFFE"></path>
            <path d="M170.687173,57 L170.687173,63.0322167 C170.687173,64.7191858 171.091746,66.0278891 173.711006,66.0278891 C176.329394,66.0278891 176.524705,64.6775124 176.524705,63.0586632 L176.524705,57 L178,57 L178,63.5186729 C178,65.6223754 176.771459,67 173.642124,67 C170.437803,67 169,65.7041192 169,63.5186729 L169,57 L170.687173,57" id="Fill-21" fill="#FFFFFE"></path>
            <polyline id="Fill-22" fill="#FFFFFE" points="181 57 182.586322 57 188.59093 64.8973306 188.621014 64.8973306 188.621014 57 190 57 190 67 188.425874 67 182.408257 59.1010267 182.375734 59.1010267 182.375734 67 181 67 181 57"></polyline>
            <path d="M203,57.7984824 C201.74145,57.4370649 200.431601,57.0438082 198.776334,57.0438082 C195.741963,57.0438082 194.759576,59.3345068 194.759576,61.5073144 C194.759576,63.6672143 195.741963,65.9561918 198.776334,65.9561918 C200.586354,65.9561918 201.774795,65.5663772 203,64.9717594 L203,66.1747634 C201.70725,66.8115466 200.431601,67 198.776334,67 C194.913475,67 193,64.5062192 193,61.5073144 C193,58.4920598 194.92972,56 198.776334,56 C200.311047,56 201.673051,56.2030822 203,56.480169 L203,57.7984824" id="Fill-23" fill="#FFFFFE"></path>
            <polygon id="Fill-24" fill="#FFFFFE" points="205 67 207 67 207 57 205 57"></polygon>
            <polyline id="Fill-25" fill="#FFFFFE" points="210 57 211.592667 57 211.592667 66.0053388 217 66.0053388 217 67 210 67 210 57"></polyline>
            <path d="M58.2138226,14.1627804 C58.2138226,14.1627804 53.4758969,7.03948163 36.813882,11.4291966 C18.8581723,16.1603993 10.5124063,32.6493767 10.0376017,41.3943215 C9.40509111,53.0646215 16.7514904,65.779571 32.140894,65.9965755 C47.07489,66.2068512 56.9918122,56.7032318 58.7409147,45.8101107 C59.9005174,38.5900851 57.0196427,31.931075 53.0483197,28.1461128 C48.2530463,23.5755607 45.6530063,22.2954024 45.6690299,19.7350858 C45.7044504,14.1981067 58.2138226,14.1627804 58.2138226,14.1627804" id="Fill-26" fill="#FFFFFE"></path>
            <path d="M54.7227776,14.1573969 C54.7227776,14.1573969 51.316984,11.805419 45.2002354,12.0129709 C40.7175671,12.165729 35.1905555,14.9186972 36.2674303,20.626374 C37.4552456,26.9176866 48.5910145,28.8520702 50.9691476,35.9852132 C53.610869,43.9070535 44.3660954,50.6184511 37.4143727,52.69397 C28.948686,55.2219519 21.0794093,52.9015218 17.4650807,50.2714244 C13.4245066,47.3316595 11.764568,44.5297091 11.0697294,40.6559608 C11.0697294,40.6559608 9.88775299,51.794025 17.2565457,59.1405314 C23.985553,65.8502687 38.0399777,67.7057825 48.3624601,59.8545099 C59.0661445,51.7126647 59.7976853,36.0192518 50.691379,29.0322252 C42.0922298,22.434566 42.1889901,19.1710202 46.3813777,16.301823 C49.7179376,14.0187522 54.7227776,14.1573969 54.7227776,14.1573969" id="Fill-27" fill="#003148"></path>
            <path d="M38.4681698,12 C38.4681698,12 29.9099518,13.9789559 24.1567684,18.7077695 C20.2236585,21.9410169 21.2810186,32.088 30.5758528,32.7538169 C39.0381003,33.3599458 44.7820233,33.5423729 47.1501394,37.3254237 C49.0964899,40.4359322 48.4129101,43 48.4129101,43 C50.1487989,40.7410983 52.5834208,34.6974644 42.625211,28.6555119 C35.11846,24.1015593 34.1368662,21.3525424 34.4172013,17.779661 C34.7034294,14.1445695 38.4681698,12 38.4681698,12" id="Fill-28" fill="#A66199"></path>
            <path d="M14.8393867,29.4842291 C12.1101854,33.8127818 11.2889057,37.7664924 12.6350318,41.6753217 C14.7344174,47.7692057 20.2482437,50.0955534 23.6391714,51.1810161 C27.2081269,52.3238271 33.3408521,52.3612282 38.3348706,50.7139181 C41.7988568,49.571107 45,47.0253396 45,47.0253396 C43.373396,48.0642587 36.4454235,47.9088364 31.5118674,45.363069 C26.579151,42.8181327 23.1319598,39.0439473 21.5221509,32.8785857 C19.7662248,26.1513766 21.9067584,21 21.9067584,21 C21.9067584,21 18.3562774,23.9064801 14.8393867,29.4842291 Z" id="Fill-29" fill="#72BC74"></path>
            <path d="M22,27 C22.0519492,32.4934857 24.5136706,41.3367618 32.9973091,45.2260986 C37.1230805,47.1174942 44.7797213,47.9425826 47.2657415,45.4204376 C48.4035964,44.2671891 49.2490277,36.7135397 41.5328967,35.1511566 C34.9772436,33.8231735 31.6876867,34.7249746 27.3934993,33.1796387 C23.0021167,31.6002083 22,27 22,27" id="Fill-30" fill="#59AED6"></path>
        </g>
    </g>
</svg>